<svg width="22" height="22" viewBox="0 0 22 22" fill="none" xmlns="http://www.w3.org/2000/svg">
<path id="Vector" d="M9.52787 12.9315L7.16266 10.5663C6.9633 10.367 6.71862 10.2673 6.42863 10.2673C6.13865 10.2673 5.88491 10.376 5.66742 10.5935C5.46805 10.7929 5.36837 11.0466 5.36837 11.3547C5.36837 11.6629 5.46805 11.9166 5.66742 12.116L8.76666 15.2152C8.96602 15.4146 9.21976 15.5142 9.52787 15.5142C9.83599 15.5142 10.0897 15.4146 10.2891 15.2152L16.4604 9.04391C16.6597 8.84454 16.7594 8.59986 16.7594 8.30988C16.7594 8.01989 16.6507 7.76615 16.4332 7.54866C16.2338 7.34929 15.9801 7.24961 15.672 7.24961C15.3639 7.24961 15.1101 7.34929 14.9108 7.54866L9.52787 12.9315ZM11.0503 21.8487C9.546 21.8487 8.13231 21.563 6.80924 20.9917C5.48618 20.4212 4.33529 19.6466 3.35658 18.6679C2.37787 17.6892 1.60324 16.5383 1.03269 15.2152C0.461419 13.8921 0.175781 12.4784 0.175781 10.9741C0.175781 9.46983 0.461419 8.05614 1.03269 6.73307C1.60324 5.41 2.37787 4.25912 3.35658 3.28041C4.33529 2.3017 5.48618 1.52671 6.80924 0.955434C8.13231 0.384884 9.546 0.0996094 11.0503 0.0996094C12.5546 0.0996094 13.9683 0.384884 15.2914 0.955434C16.6144 1.52671 17.7653 2.3017 18.744 3.28041C19.7227 4.25912 20.4974 5.41 21.0679 6.73307C21.6392 8.05614 21.9248 9.46983 21.9248 10.9741C21.9248 12.4784 21.6392 13.8921 21.0679 15.2152C20.4974 16.5383 19.7227 17.6892 18.744 18.6679C17.7653 19.6466 16.6144 20.4212 15.2914 20.9917C13.9683 21.563 12.5546 21.8487 11.0503 21.8487Z" fill="#E6366E"/>
</svg>
